<?xml version="1.0" standalone="no"?>
<!DOCTYPE svg PUBLIC "-//W3C//DTD SVG 20010904//EN"
 "http://www.w3.org/TR/2001/REC-SVG-20010904/DTD/svg10.dtd">
<svg version="1.0" xmlns="http://www.w3.org/2000/svg"
 width="1350.000000pt" height="1350.000000pt" viewBox="0 0 1350.000000 1350.000000"
 preserveAspectRatio="xMidYMid meet">
<metadata>
Created by potrace 1.11, written by Peter Selinger 2001-2013
</metadata>
<g transform="translate(0.000000,1350.000000) scale(0.100000,-0.100000)"
fill="#000000" stroke="none">
<path d="M6653 12967 c-28 -12 -1252 -695 -2719 -1517 -1908 -1069 -2679
-1506 -2705 -1533 -75 -76 -69 212 -67 -3177 3 -2919 4 -3047 21 -3081 10 -21
34 -52 52 -70 36 -36 5349 -3020 5433 -3052 59 -22 133 -17 193 13 178 90
5371 3009 5397 3034 19 17 43 49 55 71 l22 40 0 3060 0 3060 -22 40 c-12 22
-36 54 -55 72 -34 32 -5376 3030 -5437 3051 -51 18 -110 14 -168 -11z m482
-3396 c916 -135 1613 -779 1720 -1589 33 -249 9 -417 -103 -717 -206 -551
-724 -1399 -1442 -2360 -129 -173 -372 -488 -478 -620 l-23 -30 -17 22 c-1080
1371 -1747 2424 -1970 3113 -63 193 -75 278 -69 455 16 426 192 813 516 1135
326 325 771 536 1256 599 135 17 469 13 610 -8z"/>
<path d="M6663 8809 c-403 -47 -769 -309 -912 -654 -61 -147 -74 -214 -74
-385 0 -171 13 -238 74 -385 115 -277 397 -521 705 -610 130 -38 214 -49 359
-48 586 2 1062 400 1125 941 26 225 -34 460 -171 664 -54 80 -195 221 -278
277 -235 160 -541 233 -828 200z"/>
</g>
</svg>
