<?xml version="1.0" standalone="no"?>
<!DOCTYPE svg PUBLIC "-//W3C//DTD SVG 20010904//EN"
 "http://www.w3.org/TR/2001/REC-SVG-20010904/DTD/svg10.dtd">
<svg version="1.0" xmlns="http://www.w3.org/2000/svg"
 width="1247.000000pt" height="1247.000000pt" viewBox="0 0 1247.000000 1247.000000"
 preserveAspectRatio="xMidYMid meet">
<metadata>
Created by potrace 1.11, written by Peter Selinger 2001-2013
</metadata>
<g transform="translate(0.000000,1247.000000) scale(0.100000,-0.100000)"
fill="#000000" stroke="none">
<path d="M6143 12447 c-28 -12 -1252 -695 -2719 -1517 -1908 -1069 -2679
-1506 -2705 -1533 -75 -76 -69 212 -67 -3177 3 -2919 4 -3047 21 -3081 10 -21
34 -52 52 -70 36 -36 5349 -3020 5433 -3052 59 -22 133 -17 193 13 178 90
5371 3009 5397 3034 19 17 43 49 55 71 l22 40 0 3060 0 3060 -22 40 c-12 22
-36 54 -55 72 -34 32 -5376 3030 -5437 3051 -51 18 -110 14 -168 -11z m538
-3480 c65 -14 158 -39 207 -56 581 -195 1039 -687 1187 -1275 46 -181 58 -297
53 -478 -5 -133 -10 -171 -41 -288 -148 -572 -614 -1456 -1334 -2534 -176
-263 -436 -636 -443 -636 -7 0 -267 373 -443 636 -720 1078 -1186 1962 -1334
2534 -31 117 -36 155 -41 288 -5 181 7 297 53 478 158 631 676 1151 1303 1309
186 47 259 55 497 51 190 -3 236 -7 336 -29z"/>
<path d="M6175 8219 c-352 -45 -661 -273 -815 -601 -102 -219 -124 -482 -59
-719 71 -261 269 -509 511 -638 168 -90 302 -124 498 -124 196 0 330 34 498
124 242 129 440 377 511 638 100 364 -3 754 -270 1020 -230 231 -550 341 -874
300z"/>
</g>
</svg>
